<svg width="40" height="40" viewBox="0 0 40 40" fill="none" xmlns="http://www.w3.org/2000/svg">
<path d="M40 20C40 33.3333 33.3333 40 20 40C6.66667 40 0 33.3333 0 20C0 6.66667 6.66667 0 20 0C33.3333 0 40 6.66667 40 20Z" fill="url(#paint0_linear)"/>
<path d="M19.1641 17.6924C19.1641 18.1755 19.0433 18.6038 18.8018 18.9775C18.5602 19.3512 18.2275 19.6497 17.8037 19.873C18.2868 20.1055 18.6696 20.4268 18.9521 20.8369C19.2347 21.2425 19.376 21.721 19.376 22.2725C19.376 23.1566 19.0752 23.8561 18.4736 24.3711C17.8721 24.8815 17.054 25.1367 16.0195 25.1367C14.985 25.1367 14.1647 24.8792 13.5586 24.3643C12.9525 23.8493 12.6494 23.152 12.6494 22.2725C12.6494 21.721 12.7907 21.2402 13.0732 20.8301C13.3558 20.4199 13.7363 20.1009 14.2148 19.873C13.791 19.6497 13.4583 19.3512 13.2168 18.9775C12.9798 18.6038 12.8613 18.1755 12.8613 17.6924C12.8613 16.8447 13.1439 16.1702 13.709 15.6689C14.2741 15.1631 15.042 14.9102 16.0127 14.9102C16.9788 14.9102 17.7445 15.1608 18.3096 15.6621C18.8792 16.1589 19.1641 16.8356 19.1641 17.6924ZM17.3936 22.1289C17.3936 21.696 17.2682 21.3496 17.0176 21.0898C16.7669 20.8301 16.4297 20.7002 16.0059 20.7002C15.5866 20.7002 15.2516 20.8301 15.001 21.0898C14.7503 21.3451 14.625 21.6914 14.625 22.1289C14.625 22.5527 14.748 22.8945 14.9941 23.1543C15.2402 23.4141 15.582 23.5439 16.0195 23.5439C16.4479 23.5439 16.7829 23.4186 17.0244 23.168C17.2705 22.9173 17.3936 22.571 17.3936 22.1289ZM17.1885 17.7881C17.1885 17.4007 17.0859 17.0908 16.8809 16.8584C16.6758 16.6214 16.3864 16.5029 16.0127 16.5029C15.6436 16.5029 15.3564 16.6169 15.1514 16.8447C14.9463 17.0726 14.8438 17.387 14.8438 17.7881C14.8438 18.1846 14.9463 18.5036 15.1514 18.7451C15.3564 18.9867 15.6458 19.1074 16.0195 19.1074C16.3932 19.1074 16.6803 18.9867 16.8809 18.7451C17.0859 18.5036 17.1885 18.1846 17.1885 17.7881ZM27.415 20.8848C27.415 22.2611 27.1302 23.3138 26.5605 24.043C25.9909 24.7721 25.1569 25.1367 24.0586 25.1367C22.974 25.1367 22.1445 24.779 21.5703 24.0635C20.9961 23.348 20.7021 22.3226 20.6885 20.9873V19.1553C20.6885 17.7653 20.9756 16.7103 21.5498 15.9902C22.1286 15.2702 22.9603 14.9102 24.0449 14.9102C25.1296 14.9102 25.959 15.2679 26.5332 15.9834C27.1074 16.6943 27.4014 17.7174 27.415 19.0527V20.8848ZM25.4395 18.875C25.4395 18.0501 25.3255 17.4508 25.0977 17.0771C24.8743 16.6989 24.5234 16.5098 24.0449 16.5098C23.5801 16.5098 23.236 16.6898 23.0127 17.0498C22.7939 17.4053 22.6777 17.9635 22.6641 18.7246V21.1445C22.6641 21.9557 22.7734 22.5596 22.9922 22.9561C23.2155 23.348 23.571 23.5439 24.0586 23.5439C24.5417 23.5439 24.8903 23.3548 25.1045 22.9766C25.3187 22.5983 25.4303 22.0195 25.4395 21.2402V18.875Z" fill="url(#paint1_linear)"/>
<defs>
<linearGradient id="paint0_linear" x1="0.0537839" y1="-1.32571e-05" x2="39.9512" y2="40.0608" gradientUnits="userSpaceOnUse">
<stop stop-color="#BCE645"/>
<stop offset="1" stop-color="#51D356"/>
</linearGradient>
<linearGradient id="paint1_linear" x1="20.5" y1="12" x2="20.5" y2="30" gradientUnits="userSpaceOnUse">
<stop stop-color="white"/>
<stop offset="1" stop-color="white" stop-opacity="0.47"/>
</linearGradient>
</defs>
</svg>
